{"title":"Red Werewolf Hunter.TvRip.XviD.Feel-Free","uid":5960440,"size":653780877,"categoryP":"video","categoryS":"movies","magnet":"?xt=urn:btih:2f1a825c9faeaf0ae08ebb41c11ca18c16b24cae&amp;dn=Red+Werewolf+Hunter.TvRip.XviD.Feel-Free&amp;tr=udp%3A%2F%2Ftracker.openbittorrent.com%3A80&amp;tr=udp%3A%2F%2Fopen.demonii.com%3A1337&amp;tr=udp%3A%2F%2Ftracker.coppersurfer.tk%3A6969&amp;tr=udp%3A%2F%2Fexodus.desync.com%3A6969","seeders":0,"leechers":0,"uploader":"neon","files":-1,"time":1289935166,"description":"Genre:Horror\nLanguage:English\n &lt;a href=&quot; http://www.imdb.com/title/tt1626201/&quot; rel=&quot;nofollow&quot; target=&quot;_NEW&quot;&gt; http://www.imdb.com/title/tt1626201/&lt;/a&gt;\nSource:Syfy\nSubtitles:Romana\n\nGeneral\nComplete name :Red.Werewolf.Hunter.TvRip.XviD.Feel-Free\nFormat : AVI\nFormat/Info : Audio Video Interleave\nFile size : 622 MiB\nDuration : 1h 27mn\nOverall bit rate : 989 Kbps\nVideo #0\nCodec ID : XVID\nCodec ID/Hint : XviD\nDuration : 1h 27mn\nBit rate : 850 Kbps\nWidth : 720 pixels\nHeight : 384 pixels\nDisplay aspect ratio : 1.875\nFrame rate : 23.976 fps\nResolution : 24 bits\nColorimetry : 4:2:0\nScan type : Progressive\nBits/(Pixel*Frame) : 0.128\nStream size : 534 MiB (86%)\nWriting library : XviD 1.2.1 (UTC 2008-12-04)\nAudio #1\nID : 1\nFormat : MPEG Audio\nFormat version : Version 1\nFormat profile : Layer 3\nCodec ID : 55\nCodec ID/Hint : MP3\nDuration : 1h 27mn\nBit rate mode : Variable\nBit rate : 127 Kbps\nNominal bit rate : 128 Kbps\nChannel(s) : 2 channels\nSampling rate : 48.0 KHz\nResolution : 16 bits\nVideo delay : 24ms\nStream size : 79.6 MiB (13%)\nAlignment : Split accross interleaves\nInterleave, duration : 24 ms (0.58 video frame)\nInterleave, preload duration : 506 ms\n\nPlot:\nThe modern-day descendant of Little Red Riding Hood brings her fiancÃŽËœ home to meet her family and reveal their occupation as werewolf hunters, but after he is bitten by a werewolf, she must protect him from her own family.\n\n","torrent":{"xt":"urn:btih:2f1a825c9faeaf0ae08ebb41c11ca18c16b24cae","amp;dn":"Red+Werewolf+Hunter.TvRip.XviD.Feel-Free","amp;tr":["udp%3A%2F%2Ftracker.openbittorrent.com%3A80","udp%3A%2F%2Fopen.demonii.com%3A1337","udp%3A%2F%2Ftracker.coppersurfer.tk%3A6969","udp%3A%2F%2Fexodus.desync.com%3A6969"],"infoHash":"2f1a825c9faeaf0ae08ebb41c11ca18c16b24cae","infoHashBuffer":{"type":"Buffer","data":[47,26,130,92,159,174,175,10,224,142,187,65,193,28,161,140,22,178,76,174]},"announce":[],"urlList":[]}}